<?xml version="1.0" standalone="no"?><!DOCTYPE svg PUBLIC "-//W3C//DTD SVG 1.1//EN" "http://www.w3.org/Graphics/SVG/1.1/DTD/svg11.dtd"><svg t="1609936824535" class="icon" viewBox="0 0 3509 1024" version="1.1" xmlns="http://www.w3.org/2000/svg" p-id="3394" xmlns:xlink="http://www.w3.org/1999/xlink" width="1370.703125" height="400"><defs><style type="text/css"></style></defs><path d="M2684.352667 337.012766h-330.531441v45.367377h103.696455v181.46761h-123.139481v51.848702h123.139481v291.645389h51.847752v-291.645389h129.620806V900.860519h103.695506v-51.847753h-45.366428V337.012766h-12.96265z m-174.987234 220.354611v-174.987234h129.620806v181.46761h-129.620806v-6.480376zM1757.568746 771.240663h265.721038v51.847752H1757.568746v-51.847752z m-187.948934-90.734754c0 90.734754-6.481325 155.544208-25.924351 213.873285 0 6.481325 0 6.481325 6.481325 6.481325h51.847753c19.443026-84.253429 19.443026-149.062883 19.443025-200.911585h71.290779v149.063832h-45.366427c-6.481325 0-6.481325 0-6.481326 6.480376l12.961701 45.367377h90.734754V337.012766h-168.506858l-6.480375 343.493143z m58.329078-19.443026v-116.658156h71.290778V667.544208h-71.290778v-6.481325z m64.809453-278.68274v116.658156h-71.290779v-116.658156h71.290779z" fill="#56606F" p-id="3395"></path><path d="M2042.73281 537.924351h64.810403V492.556974h-187.948934c0-12.961701 0-32.404727 12.961701-45.367377h168.505908v-45.366428h-45.366427c6.480376-25.924351 19.443026-58.329078 19.443026-58.329078 0-6.481325 0-6.481325-6.481326-6.481325h-38.886051l-19.443026 64.810403H1951.999006c6.481325-25.924351 6.481325-51.848702 12.961701-84.253429 0-6.481325 0-6.481325-6.480376-6.481325h-38.886052c-6.481325 32.405676-6.481325 64.810403-19.443026 90.734754h-32.405676l-19.443026-64.810403h-38.886052c-6.480376 0-6.480376 0-6.480376 6.481325s6.480376 32.404727 19.443026 58.329078h-45.367377v45.366428h110.176831c-6.480376 12.96265-6.480376 32.405676-19.443026 45.367377h-103.695506v45.367377h77.772104c-32.405676 45.366428-64.810403 64.809454-77.772104 71.290779v51.847753c0 6.481325 6.480376 6.481325 6.480376 0 19.443026 6.481325 32.405676-12.961701 45.367377-25.923402h187.948935V706.43026H1854.783876l6.481325-38.886052c0-6.481325 0-6.481325-6.481325-6.481325h-45.367377l-6.480376 84.253428c0 6.481325 0 6.481325 6.480376 6.481326h252.759337v123.138531H1951.999006c-6.481325 0-6.481325 0-6.481325 6.481325l12.96265 45.367377h155.544208v-213.873285h-58.329078V602.733805c25.923402 19.443026 45.366428 38.886052 71.290778 45.367377 6.481325 6.481325 6.481325 6.481325 6.481325 0v-45.367377c-25.924351-6.480376-58.329078-25.923402-90.734754-64.809454z m-58.329077 0c6.481325 19.443026 25.924351 38.886052 38.886051 51.847753h-162.024583c12.961701-12.961701 25.923402-32.404727 38.886052-51.847753h84.25248z m401.823169 200.910635l-90.734754 71.291728V492.556974h-123.138532v51.847753h71.290779v304.608039c-19.443026 12.961701-32.404727 19.443026-32.404727 19.443026l32.404727 38.886052 149.062883-110.17778-6.480376-58.329078c6.480376 0 0 0 0 0z m-136.101182-298.125765h51.847753c6.481325 0 6.481325-6.481325 6.481325-6.481325l-77.772104-116.658156h-51.848702l-6.480376 6.481326c6.480376 6.480376 77.772104 116.658156 77.772104 116.658155z m596.25248-97.21513h421.265246v51.847753H2846.3782v-51.847753z m155.544207 259.239714h330.531442V550.886052h-537.923402v51.847753h149.062883c-32.404727 84.253429-110.176831 285.165014-110.176831 291.645389s0 6.481325 6.480376 6.481325h466.632623c6.481325 0 6.481325-6.481325 6.481325-6.481325l-71.290779-181.467609h-51.848702c-6.480376 0-6.480376 6.480376-6.480376 6.480375 0 6.481325 51.847753 129.620806 51.847753 129.620806H2924.150304c-6.481325-6.481325 77.772104-246.278962 77.772103-246.278961z" fill="#56606F" p-id="3396"></path><path d="M1219.645344 836.050116c-19.443026 19.443026-64.810403 58.329078-149.063831 58.329078H590.987189c149.062883-142.581557 265.721038-265.721038 278.683688-272.202363 12.961701-12.961701 38.886052-38.886052 64.809454-58.329078 51.848702-58.329078 97.21513-64.809454 142.582507-64.809454 58.329078 0 103.696455 19.443026 142.582506 58.329078 77.772104 71.290779 77.772104 207.39196 0 278.682739z m97.21513-369.417493c-58.329078-58.329078-142.582507-103.695506-226.835935-103.695506-84.25248 0-149.062883 32.404727-207.391961 71.290779-19.443026 19.443026-58.329078 45.367377-84.253429 84.253429-32.404727 19.443026-511.999051 505.518675-511.99905 505.518675h706.42931c45.367377 0 84.253429 0 110.17778-6.481325 71.290779-6.481325 149.062883-38.886052 207.39196-90.733805 123.139481-129.620806 123.139481-337.012766 6.481325-460.152247z" fill="#00A3FF" p-id="3397"></path><path d="M519.69641 434.227896C454.886007 388.860519 396.556929 369.417493 318.784825 369.417493c-90.733805 0-174.987234 38.886052-226.834986 103.696455C-31.189642 602.733805-31.189642 810.126714 98.430215 939.746571c51.848702 51.847753 110.17778 77.772104 174.987233 77.772104l129.620806-123.139481h-71.291728c-71.290779-6.480376-116.658156-32.404727-149.062882-58.329078-77.772104-77.772104-77.772104-200.910635 0-285.164064 38.886052-38.886052 77.772104-58.329078 142.582506-58.329078 38.886052 0 77.772104 6.481325 129.619857 58.329078 19.443026 25.924351 77.772104 64.810403 97.21513 90.733805h6.481325l77.772104-90.733805c-25.924351-32.404727-90.734754-84.253429-116.658156-116.658156" fill="#00C8DC" p-id="3398"></path><path d="M1109.467564 285.165014C1051.138487 116.658156 882.632578 0 701.164019 0c-220.353661 0-395.340895 162.025533-434.226946 369.417493 12.961701 0 32.404727-6.480376 51.847752-6.480376s51.847753 6.480376 71.290779 6.480376c32.405676-142.581557 155.544208-239.796687 298.126715-239.796687 123.139481 0 233.316311 71.290779 285.164064 181.467609 0 0 6.481325 6.481325 6.481325 0 45.367377-6.480376 90.733805-25.923402 129.619856-25.923401 0 12.961701 0 12.961701 0 0" fill="#006EFF" p-id="3399"></path></svg>